<?xml version="1.0" encoding="UTF-8"?>
<svg max-width="500px" max-height="150px" viewBox="0 0 1039 702" version="1.1" xmlns="http://www.w3.org/2000/svg" xmlns:xlink="http://www.w3.org/1999/xlink">
    <!-- Generator: Sketch 50.2 (55047) - http://www.bohemiancoding.com/sketch -->
    <title>collaboration</title>
    <desc>Created with Sketch.</desc>
    <defs>
        <linearGradient x1="50%" y1="100%" x2="50%" y2="0%" id="linearGradient-1">
            <stop stop-color="#808080" stop-opacity="0.25" offset="0%"></stop>
            <stop stop-color="#808080" stop-opacity="0.12" offset="54%"></stop>
            <stop stop-color="#808080" stop-opacity="0.1" offset="100%"></stop>
        </linearGradient>
    </defs>
    <g id="Page-1" stroke="none" stroke-width="1" fill="none" fill-rule="evenodd">
        <g id="collaboration">
            <g id="Group" opacity="0.5" transform="translate(409.000000, 273.000000)" fill="url(#linearGradient-1)" fill-rule="nonzero">
                <circle id="Oval" cx="34.42" cy="34.47" r="34"></circle>
            </g>
            <circle id="Oval" fill="#69F0AE" fill-rule="nonzero" cx="443.42" cy="307.47" r="32"></circle>
            <g id="Group" opacity="0.5" transform="translate(409.000000, 411.000000)" fill="url(#linearGradient-1)" fill-rule="nonzero">
                <circle id="Oval" cx="34.42" cy="34.47" r="34"></circle>
            </g>
            <circle id="Oval" fill="#E0E0E0" fill-rule="nonzero" cx="443.42" cy="445.47" r="32"></circle>
            <g id="Group" opacity="0.5" transform="translate(409.000000, 549.000000)" fill="url(#linearGradient-1)" fill-rule="nonzero">
                <circle id="Oval" cx="34.42" cy="34.47" r="34"></circle>
            </g>
            <circle id="Oval" fill="#E0E0E0" fill-rule="nonzero" cx="443.42" cy="583.47" r="32"></circle>
            <rect id="Rectangle-path" fill="#E0E0E0" fill-rule="nonzero" x="522.42" y="295.47" width="86" height="6"></rect>
            <rect id="Rectangle-path" fill="#E0E0E0" fill-rule="nonzero" x="522.42" y="304.47" width="142" height="6"></rect>
            <rect id="Rectangle-path" fill="#E0E0E0" fill-rule="nonzero" x="522.42" y="313.47" width="132" height="6"></rect>
            <rect id="Rectangle-path" fill="#E0E0E0" fill-rule="nonzero" x="522.42" y="433.47" width="86" height="6"></rect>
            <rect id="Rectangle-path" fill="#E0E0E0" fill-rule="nonzero" x="522.42" y="442.47" width="142" height="6"></rect>
            <rect id="Rectangle-path" fill="#E0E0E0" fill-rule="nonzero" x="522.42" y="451.47" width="132" height="6"></rect>
            <rect id="Rectangle-path" fill="#E0E0E0" fill-rule="nonzero" x="522.42" y="571.47" width="86" height="6"></rect>
            <rect id="Rectangle-path" fill="#E0E0E0" fill-rule="nonzero" x="522.42" y="580.47" width="142" height="6"></rect>
            <rect id="Rectangle-path" fill="#E0E0E0" fill-rule="nonzero" x="522.42" y="589.47" width="132" height="6"></rect>
            <polygon id="Shape" fill="#FFFFFF" fill-rule="nonzero" points="431.42 305.47 443.42 316.47 460.42 291.47 466.42 296.47 443.42 326.47 426.42 307.47"></polygon>
            <polygon id="Shape" fill="#FFFFFF" fill-rule="nonzero" points="431.42 442.47 443.42 453.47 460.42 428.47 466.42 433.47 443.42 463.47 426.42 444.47"></polygon>
            <polygon id="Shape" fill="#FFFFFF" fill-rule="nonzero" points="431.42 579.47 443.42 590.47 460.42 565.47 466.42 570.47 443.42 600.47 426.42 581.47"></polygon>
            <g id="Group" opacity="0.5" transform="translate(837.000000, 279.000000)" fill="url(#linearGradient-1)" fill-rule="nonzero">
                <rect id="Rectangle-path" x="0.88" y="0" width="142.04" height="151.51" rx="41.07"></rect>
            </g>
            <rect id="Rectangle-path" fill="#6C63FF" fill-rule="nonzero" x="841.51" y="282.41" width="134" height="142.93" rx="41.07"></rect>
            <path d="M916.17,382.01 L916.17,376.94 C931.772454,372.911464 941.945402,357.909706 939.91495,341.923996 C937.884499,325.938286 924.284145,313.956133 908.17,313.956133 C892.055855,313.956133 878.455501,325.938286 876.42505,341.923996 C874.394598,357.909706 884.567546,372.911464 900.17,376.94 L900.17,382.01 C886.633694,385.668627 877.215966,397.928052 877.17,411.95 L877.17,425.95 L939.17,425.95 L939.17,411.95 C939.124034,397.928052 929.706306,385.668627 916.17,382.01 Z" id="Shape" fill="#FFFFFF" fill-rule="nonzero"></path>
            <circle id="Oval" fill="#FFFFFF" fill-rule="nonzero" cx="908.17" cy="338.95" r="34"></circle>
            <path d="M942.08,341.3 C942.08,341.3 940.17,377.95 955.17,381.95 C955.17,381.95 924.17,398.95 918.17,361.95 L942.08,341.3 Z" id="Shape" fill="#FFFFFF" fill-rule="nonzero"></path>
            <path d="M874.26,341.3 C874.26,341.3 876.17,377.95 861.17,381.95 C861.17,381.95 892.17,398.95 898.17,361.95 L874.26,341.3 Z" id="Shape" fill="#FFFFFF" fill-rule="nonzero"></path>
            <g id="Group" opacity="0.5" transform="translate(469.000000, 0.000000)" fill="url(#linearGradient-1)" fill-rule="nonzero">
                <rect id="Rectangle-path" x="0.88" y="0" width="142.04" height="151.51" rx="41.07"></rect>
            </g>
            <rect id="Rectangle-path" fill="#6C63FF" fill-rule="nonzero" x="473.9" y="4.29" width="134" height="142.93" rx="41.07"></rect>
            <path d="M585.94,60.85 C584.94,52.36 583.44,43.85 580.19,35.91 C576.94,27.97 571.72,20.68 564.44,16.16 C561.84894,14.4230398 558.850959,13.389253 555.74,13.16 C550.05,12.96 544.79,16.8 541.86,21.68 C540.867886,23.3703919 540.00219,25.1318659 539.27,26.95 C533.690403,27.9002974 529.484774,32.5438406 529.09,38.19 C516.777556,43.4458105 509.17471,55.9542728 510.178475,69.3038903 C511.182239,82.6535078 520.570062,93.884433 533.53,97.24 L533.53,102.57 C519.751757,106.172233 510.125026,118.59872 510.08,132.84 L510.08,147.34 L572.61,147.34 L572.61,132.83 C572.564974,118.58872 562.938243,106.162233 549.16,102.56 L549.16,97.24 C562.964301,93.6708825 572.60811,81.2182374 572.61,66.96 C572.61,66.89 572.61,66.81 572.61,66.74 L576.13,74.57 C579.48,82.03 582.91,90.03 581.6,98.11 C588.03,87.11 587.5,73.49 585.94,60.85 Z" id="Shape" fill="#FFFFFF" fill-rule="nonzero"></path>
            <g id="Group" opacity="0.5" transform="translate(108.000000, 494.000000)" fill="url(#linearGradient-1)" fill-rule="nonzero">
                <rect id="Rectangle-path" x="0.88" y="0" width="142.04" height="151.51" rx="41.07"></rect>
            </g>
            <rect id="Rectangle-path" fill="#6C63FF" fill-rule="nonzero" x="112.9" y="498.29" width="134" height="142.93" rx="41.07"></rect>
            <path d="M153.89,557.94 C151.913706,554.118555 151.005108,549.834672 151.26,545.54 C151.54187,541.221092 153.501394,537.183612 156.72,534.29 C160.31,531.23 165.18,530.15 169.88,529.77 C174.58,529.39 179.35,529.62 183.98,528.71 C191.707666,527.145484 198.486164,522.549648 202.8,515.95 C203.264277,519.554146 203.230628,523.205024 202.7,526.8 C202,530.36 200.17,533.86 197.08,535.8 C200.82,534.07 200.42,538.13 199.6,540.56 C201.46,542.8 205.96,543.17 206.19,546.07 C206.56599,548.960739 206.243654,551.899491 205.25,554.64 C204.12,557.31 205.33,562.02 202.44,562.23" id="Shape" stroke="#FFFFFF" fill="#FFFFFF" fill-rule="nonzero"></path>
            <path d="M199.22,534.4 C199.22,534.4 215.67,535.83 203.96,560.26" id="Shape" fill="#FFFFFF" fill-rule="nonzero"></path>
            <path d="M187.17,598.01 L187.17,592.94 C202.772454,588.911464 212.945402,573.909706 210.91495,557.923996 C208.884499,541.938286 195.284145,529.956133 179.17,529.956133 C163.055855,529.956133 149.455501,541.938286 147.42505,557.923996 C145.394598,573.909706 155.567546,588.911464 171.17,592.94 L171.17,598.01 C157.633694,601.668627 148.215966,613.928052 148.17,627.95 L148.17,641.95 L210.17,641.95 L210.17,627.95 C210.124034,613.928052 200.706306,601.668627 187.17,598.01 Z" id="Shape" fill="#FFFFFF" fill-rule="nonzero"></path>
            <path d="M178.92,451.47 L178.92,445.47" id="Shape" stroke="#CFD8DC" stroke-width="2"></path>
            <path d="M178.92,433.47 L178.92,103.47" id="Shape" stroke="#CFD8DC" stroke-width="2" stroke-dasharray="12"></path>
            <polyline id="Shape" stroke="#CFD8DC" stroke-width="2" points="178.91 97.47 178.91 91.47 184.91 91.47"></polyline>
            <path d="M196.77,91.47 L427.99,91.47" id="Shape" stroke="#CFD8DC" stroke-width="2" stroke-dasharray="11.86"></path>
            <path d="M433.92,91.47 L439.92,91.47" id="Shape" stroke="#CFD8DC" stroke-width="2"></path>
            <path d="M651.92,91.47 L657.92,91.47" id="Shape" stroke="#CFD8DC" stroke-width="2"></path>
            <path d="M669.78,91.47 L924.98,91.47" id="Shape" stroke="#CFD8DC" stroke-width="2" stroke-dasharray="11.87"></path>
            <polyline id="Shape" stroke="#CFD8DC" stroke-width="2" points="930.91 91.47 936.91 91.47 936.91 97.47"></polyline>
            <path d="M936.92,110.2 L936.92,231.11" id="Shape" stroke="#CFD8DC" stroke-width="2" stroke-dasharray="12.73"></path>
            <path d="M936.92,237.47 L936.92,243.47" id="Shape" stroke="#CFD8DC" stroke-width="2"></path>
            <rect id="Rectangle-path" fill="#69F0AE" fill-rule="nonzero" opacity="0.3" transform="translate(6.914902, 547.466225) rotate(30.000000) translate(-6.914902, -547.466225) " x="1.85490232" y="542.406225" width="10.12" height="10.12"></rect>
            <rect id="Rectangle-path" fill="#69F0AE" fill-rule="nonzero" opacity="0.3" transform="translate(705.916660, 49.465574) rotate(30.000000) translate(-705.916660, -49.465574) " x="700.85666" y="44.4055738" width="10.12" height="10.12"></rect>
            <rect id="Rectangle-path" fill="#4D8AF0" fill-rule="nonzero" opacity="0.3" transform="translate(224.918440, 694.471959) rotate(30.000000) translate(-224.918440, -694.471959) " x="219.85844" y="689.411959" width="10.12" height="10.12"></rect>
            <rect id="Rectangle-path" fill="#4D8AF0" fill-rule="nonzero" opacity="0.3" transform="translate(793.916895, 204.469511) rotate(30.000000) translate(-793.916895, -204.469511) " x="788.856895" y="199.409511" width="10.12" height="10.12"></rect>
            <circle id="Oval" fill="#69F0AE" fill-rule="nonzero" opacity="0.3" cx="831.92" cy="667.47" r="6"></circle>
            <circle id="Oval" fill="#69F0AE" fill-rule="nonzero" opacity="0.3" cx="261.92" cy="262.47" r="6"></circle>
            <circle id="Oval" fill="#FF5252" fill-rule="nonzero" opacity="0.3" cx="873.92" cy="533.47" r="6"></circle>
            <path d="M1034.87,44.89 C1035.14872,45.7539508 1035.96246,46.3317057 1036.87,46.31 C1037.7599,46.3068981 1038.55017,46.8782926 1038.82611,47.7243421 C1039.10204,48.5703916 1038.80062,49.4978379 1038.08,50.02 C1037.3604,50.5403245 1037.05763,51.4647942 1037.33,52.31 C1037.60614,53.1561031 1037.30479,54.0837272 1036.58411,54.6059939 C1035.86342,55.1282606 1034.88808,55.125839 1034.17,54.6 C1033.45148,54.0779408 1032.47852,54.0779408 1031.76,54.6 C1031.04192,55.125839 1030.06658,55.1282606 1029.34589,54.6059939 C1028.62521,54.0837272 1028.32386,53.1561031 1028.6,52.31 C1028.87237,51.4647942 1028.5696,50.5403245 1027.85,50.02 C1027.12938,49.4978379 1026.82796,48.5703916 1027.10389,47.7243421 C1027.37983,46.8782926 1028.1701,46.3068981 1029.06,46.31 C1029.96754,46.3317057 1030.78128,45.7539508 1031.06,44.89 C1031.37025,44.1095518 1032.12515,43.5972813 1032.965,43.5972813 C1033.80485,43.5972813 1034.55975,44.1095518 1034.87,44.89 Z" id="Shape" fill="#FF5252" fill-rule="nonzero" opacity="0.3"></path>
            <path d="M269.87,511.89 C270.148722,512.753951 270.962462,513.331706 271.87,513.31 C272.759905,513.306898 273.550173,513.878293 273.826108,514.724342 C274.102043,515.570392 273.800616,516.497838 273.08,517.02 C272.360402,517.540325 272.057628,518.464794 272.33,519.31 C272.606144,520.156103 272.304789,521.083727 271.584106,521.605994 C270.863424,522.128261 269.88808,522.125839 269.17,521.6 C268.451484,521.077941 267.478516,521.077941 266.76,521.6 C266.04192,522.125839 265.066576,522.128261 264.345894,521.605994 C263.625211,521.083727 263.323856,520.156103 263.6,519.31 C263.872372,518.464794 263.569598,517.540325 262.85,517.02 C262.129384,516.497838 261.827957,515.570392 262.103892,514.724342 C262.379827,513.878293 263.170095,513.306898 264.06,513.31 C264.967538,513.331706 265.781278,512.753951 266.06,511.89 C266.370246,511.109552 267.125148,510.597281 267.965,510.597281 C268.804852,510.597281 269.559754,511.109552 269.87,511.89 Z" id="Shape" fill="#FF5252" fill-rule="nonzero" opacity="0.3"></path>
            <path d="M135.87,75.89 C136.148722,76.7539508 136.962462,77.3317057 137.87,77.31 C138.759905,77.3068981 139.550173,77.8782926 139.826108,78.7243421 C140.102043,79.5703916 139.800616,80.4978379 139.08,81.02 C138.360402,81.5403245 138.057628,82.4647942 138.33,83.31 C138.606144,84.1561031 138.304789,85.0837272 137.584106,85.6059939 C136.863424,86.1282606 135.88808,86.125839 135.17,85.6 C134.451484,85.0779408 133.478516,85.0779408 132.76,85.6 C132.04192,86.125839 131.066576,86.1282606 130.345894,85.6059939 C129.625211,85.0837272 129.323856,84.1561031 129.6,83.31 C129.872372,82.4647942 129.569598,81.5403245 128.85,81.02 C128.129384,80.4978379 127.827957,79.5703916 128.103892,78.7243421 C128.379827,77.8782926 129.170095,77.3068981 130.06,77.31 C130.967538,77.3317057 131.781278,76.7539508 132.06,75.89 C132.370246,75.1095518 133.125148,74.5972813 133.965,74.5972813 C134.804852,74.5972813 135.559754,75.1095518 135.87,75.89 Z" id="Shape" fill="#FF5252" fill-rule="nonzero" opacity="0.3"></path>
            <path d="M430.87,8.89 C431.148722,9.7539508 431.962462,10.3317057 432.87,10.31 C433.759905,10.3068981 434.550173,10.8782926 434.826108,11.7243421 C435.102043,12.5703916 434.800616,13.4978379 434.08,14.02 C433.360402,14.5403245 433.057628,15.4647942 433.33,16.31 C433.606144,17.1561031 433.304789,18.0837272 432.584106,18.6059939 C431.863424,19.1282606 430.88808,19.125839 430.17,18.6 C429.451484,18.0779408 428.478516,18.0779408 427.76,18.6 C427.04192,19.125839 426.066576,19.1282606 425.345894,18.6059939 C424.625211,18.0837272 424.323856,17.1561031 424.6,16.31 C424.872372,15.4647942 424.569598,14.5403245 423.85,14.02 C423.129384,13.4978379 422.827957,12.5703916 423.103892,11.7243421 C423.379827,10.8782926 424.170095,10.3068981 425.06,10.31 C425.967538,10.3317057 426.781278,9.7539508 427.06,8.89 C427.370246,8.10955178 428.125148,7.59728132 428.965,7.59728132 C429.804852,7.59728132 430.559754,8.10955178 430.87,8.89 Z" id="Shape" fill="#4D8AF0" fill-rule="nonzero" opacity="0.3"></path>
            <path d="M987.87,286.89 C988.148722,287.753951 988.962462,288.331706 989.87,288.31 C990.759905,288.306898 991.550173,288.878293 991.826108,289.724342 C992.102043,290.570392 991.800616,291.497838 991.08,292.02 C990.360402,292.540325 990.057628,293.464794 990.33,294.31 C990.606144,295.156103 990.304789,296.083727 989.584106,296.605994 C988.863424,297.128261 987.88808,297.125839 987.17,296.6 C986.451484,296.077941 985.478516,296.077941 984.76,296.6 C984.04192,297.125839 983.066576,297.128261 982.345894,296.605994 C981.625211,296.083727 981.323856,295.156103 981.6,294.31 C981.872372,293.464794 981.569598,292.540325 980.85,292.02 C980.129384,291.497838 979.827957,290.570392 980.103892,289.724342 C980.379827,288.878293 981.170095,288.306898 982.06,288.31 C982.967538,288.331706 983.781278,287.753951 984.06,286.89 C984.370246,286.109552 985.125148,285.597281 985.965,285.597281 C986.804852,285.597281 987.559754,286.109552 987.87,286.89 Z" id="Shape" fill="#4D8AF0" fill-rule="nonzero" opacity="0.3"></path>
        </g>
    </g>
</svg>