<?xml version="1.0" encoding="UTF-8"?>
<svg max-width="300px" max-height="185px" viewBox="0 0 548 537" version="1.1" xmlns="http://www.w3.org/2000/svg" xmlns:xlink="http://www.w3.org/1999/xlink">
    <!-- Generator: Sketch 50.2 (55047) - http://www.bohemiancoding.com/sketch -->
    <title>newsletter</title>
    <desc>Created with Sketch.</desc>
    <defs>
        <linearGradient x1="50.0009134%" y1="100.0056%" x2="50.0009134%" y2="-0.000695461321%" id="linearGradient-1">
            <stop stop-color="#808080" stop-opacity="0.25" offset="0%"></stop>
            <stop stop-color="#808080" stop-opacity="0.12" offset="54%"></stop>
            <stop stop-color="#808080" stop-opacity="0.1" offset="100%"></stop>
        </linearGradient>
    </defs>
    <g id="Page-1" stroke="none" stroke-width="1" fill="none" fill-rule="evenodd">
        <g id="newsletter" fill-rule="nonzero">
            <g id="Group" opacity="0.5" fill="url(#linearGradient-1)">
                <path d="M547,211.55 L547,210.72 L274.16,0.92 C273.806497,0.658300933 273.323503,0.658300933 272.97,0.92 L0.12,210.72 L0.12,535.92 L0.64,535.92 L0.64,536.44 L547.53,536.44 L547.53,211.24 L547,211.55 Z" id="Shape"></path>
            </g>
            <polygon id="Shape" fill="#FFFFFF" points="537.58 526.85 9.58 526.85 9.58 212.85 273.58 9.85 537.58 212.85"></polygon>
            <polygon id="Shape" fill="#E0E0E0" points="518.58 508.24 28.58 508.24 28.58 216.84 273.58 28.45 518.58 216.84"></polygon>
            <rect id="Rectangle-path" fill="#6C63FF" transform="translate(257.077577, 253.352326) rotate(-14.690000) translate(-257.077577, -253.352326) " x="102.577577" y="56.8523255" width="309" height="393"></rect>
            <rect id="Rectangle-path" fill="#F5F5F5" x="120.58" y="81.85" width="309" height="393"></rect>
            <polygon id="Shape" fill="#000000" opacity="0.05" points="12.08 213.35 276.08 370.35 12.08 527.35"></polygon>
            <polygon id="Shape" fill="#FFFFFF" points="10.08 213.35 274.08 370.35 10.08 527.35"></polygon>
            <polygon id="Shape" fill="#000000" opacity="0.05" points="536.08 213.35 272.08 370.35 536.08 527.35"></polygon>
            <polygon id="Shape" fill="#FFFFFF" points="538.08 213.35 274.08 370.35 538.08 527.35"></polygon>
            <polygon id="Shape" fill="#000000" opacity="0.05" points="10.08 522.35 274.08 316.35 538.08 522.35"></polygon>
            <polygon id="Shape" fill="#FFFFFF" points="10.08 527.35 274.08 321.35 538.08 527.35"></polygon>
            <rect id="Rectangle-path" fill="#6C63FF" opacity="0.5" x="138.58" y="99.85" width="124" height="10"></rect>
            <rect id="Rectangle-path" fill="#6C63FF" opacity="0.5" x="138.58" y="139.85" width="268" height="10"></rect>
            <rect id="Rectangle-path" fill="#6C63FF" opacity="0.5" x="138.58" y="165.85" width="268" height="10"></rect>
            <rect id="Rectangle-path" fill="#6C63FF" opacity="0.4" x="138.58" y="191.85" width="268" height="10"></rect>
            <rect id="Rectangle-path" fill="#6C63FF" opacity="0.4" x="138.58" y="217.85" width="268" height="10"></rect>
            <rect id="Rectangle-path" fill="#6C63FF" opacity="0.3" x="138.58" y="243.85" width="153" height="10"></rect>
            <rect id="Rectangle-path" fill="#6C63FF" opacity="0.3" x="138.58" y="269.85" width="209" height="10"></rect>
        </g>
    </g>
</svg>