<?xml version="1.0" encoding="UTF-8"?>
<svg max-width="300px" max-height="185px" viewBox="0 0 860 719" version="1.1" xmlns="http://www.w3.org/2000/svg" xmlns:xlink="http://www.w3.org/1999/xlink">
    <!-- Generator: Sketch 50.2 (55047) - http://www.bohemiancoding.com/sketch -->
    <title>security</title>
    <desc>Created with Sketch.</desc>
    <defs>
        <linearGradient x1="50%" y1="100%" x2="50%" y2="0%" id="linearGradient-1">
            <stop stop-color="#808080" stop-opacity="0.25" offset="0%"></stop>
            <stop stop-color="#808080" stop-opacity="0.12" offset="54%"></stop>
            <stop stop-color="#808080" stop-opacity="0.1" offset="100%"></stop>
        </linearGradient>
        <linearGradient x1="50%" y1="100%" x2="50%" y2="0%" id="linearGradient-2">
            <stop stop-color="#2027FF" stop-opacity="0.25" offset="0%"></stop>
            <stop stop-color="#808080" stop-opacity="0.12" offset="87.8748194%"></stop>
            <stop stop-color="#808080" stop-opacity="0.1" offset="100%"></stop>
        </linearGradient>
        <linearGradient x1="0%" y1="50.0037512%" x2="100%" y2="50.0037512%" id="linearGradient-3">
            <stop stop-color="#808080" stop-opacity="0.25" offset="0%"></stop>
            <stop stop-color="#808080" stop-opacity="0.12" offset="54%"></stop>
            <stop stop-color="#808080" stop-opacity="0.1" offset="100%"></stop>
        </linearGradient>
    </defs>
    <g id="Page-1" stroke="none" stroke-width="1" fill="none" fill-rule="evenodd">
        <g id="security" fill-rule="nonzero">
            <g id="Group" opacity="0.5" transform="translate(153.000000, 0.000000)" fill="url(#linearGradient-2)">
                <path d="M278.4,0.05 L0.4,171.13 C0.4,171.13 0.4,524 278.4,716.44 C556.4,524 556.4,171.13 556.4,171.13 L278.4,0.05 Z" id="Shape"></path>
            </g>
            <path d="M431.4,10.75 L161.7,176.75 C161.7,176.75 161.7,519.06 431.4,705.75 C701.1,519.03 701.1,176.75 701.1,176.75 L431.4,10.75 Z" id="Shape" fill="#FFFFFF"></path>
            <path d="M433.01,10.75 L428.4,13.58 L428.4,702.51 C429.93,703.59 431.46,704.68 433.01,705.75 C702.71,519.03 702.71,176.75 702.71,176.75 L433.01,10.75 Z" id="Shape" fill="#6C63FF" opacity="0.080625"></path>
            <g id="Group" opacity="0.7" transform="translate(344.000000, 302.000000)" fill="url(#linearGradient-3)">
                <polygon id="Shape" points="22.11 45.07 72.95 91.67 135.98 0.75 161.4 21.94 72.95 134.04 0.92 53.54"></polygon>
            </g>
            <polygon id="Shape" fill="#3AD29F" points="378.11 349.87 419.35 387.67 477.78 301.75 498.4 318.94 419.35 422.04 360.92 356.74"></polygon>
            <path d="M165.29,48 C163.596042,47.2391345 162.737355,45.3328487 163.29,43.56 C163.332757,43.4269702 163.35961,43.2893453 163.37,43.15 C163.422417,42.3372697 162.934319,41.5867697 162.170154,41.3051137 C161.40599,41.0234578 160.547578,41.2776616 160.06,41.93 C159.979553,42.0418091 159.912432,42.1626267 159.86,42.29 C159.099135,43.9839578 157.192849,44.8426451 155.42,44.29 C155.28697,44.2472432 155.149345,44.2203895 155.01,44.21 C154.19727,44.1575833 153.44677,44.6456806 153.165114,45.4098455 C152.883458,46.1740104 153.137662,47.0324216 153.79,47.52 C153.901809,47.6004473 154.022627,47.6675682 154.15,47.72 C155.843958,48.4808655 156.702645,50.3871513 156.15,52.16 C156.107243,52.2930298 156.08039,52.4306547 156.07,52.57 C155.997822,53.3963006 156.487415,54.1687421 157.265481,54.456136 C158.043548,54.7435299 158.917711,54.4748182 159.4,53.8 C159.480447,53.6881909 159.547568,53.5673733 159.6,53.44 C160.360865,51.7460422 162.267151,50.8873549 164.04,51.44 C164.17303,51.4827568 164.310655,51.5096105 164.45,51.52 C165.26273,51.5724167 166.01323,51.0843194 166.294886,50.3201545 C166.576542,49.5559896 166.322338,48.6975784 165.67,48.21 C165.552431,48.1246712 165.424804,48.0541408 165.29,48 Z" id="Shape" fill="#4D8AF0" opacity="0.5"></path>
            <path d="M19.29,373 C17.5960422,372.239135 16.7373549,370.332849 17.29,368.56 C17.3327568,368.42697 17.3596105,368.289345 17.37,368.15 C17.4224167,367.33727 16.9343194,366.58677 16.1701545,366.305114 C15.4059896,366.023458 14.5475784,366.277662 14.06,366.93 C13.9795527,367.041809 13.9124318,367.162627 13.86,367.29 C13.0991345,368.983958 11.1928487,369.842645 9.42,369.29 C9.28697023,369.247243 9.14934535,369.22039 9.01,369.21 C8.19726969,369.157583 7.44676967,369.645681 7.16511373,370.409846 C6.88345778,371.17401 7.13766162,372.032422 7.79,372.52 C7.90180914,372.600447 8.02262671,372.667568 8.15,372.72 C9.84395775,373.480865 10.7026451,375.387151 10.15,377.16 C10.1072432,377.29303 10.0803895,377.430655 10.07,377.57 C9.99782177,378.396301 10.487415,379.168742 11.2654813,379.456136 C12.0435476,379.74353 12.9177109,379.474818 13.4,378.8 C13.4804473,378.688191 13.5475682,378.567373 13.6,378.44 C14.3608655,376.746042 16.2671513,375.887355 18.04,376.44 C18.1730298,376.482757 18.3106547,376.50961 18.45,376.52 C19.2627303,376.572417 20.0132303,376.084319 20.2948863,375.320154 C20.5765422,374.55599 20.3223384,373.697578 19.67,373.21 C19.552431,373.124671 19.4248045,373.054141 19.29,373 Z" id="Shape" fill="#4D8AF0" opacity="0.5"></path>
            <circle id="Oval" fill="#F55F44" opacity="0.5" cx="748.4" cy="254" r="6"></circle>
            <circle id="Oval" fill="#F55F44" opacity="0.5" cx="121.4" cy="683" r="6"></circle>
            <circle id="Oval" fill="#F55F44" opacity="0.5" cx="850.4" cy="485" r="6"></circle>
            <path d="M704.29,77 C702.596042,76.2391345 701.737355,74.3328487 702.29,72.56 C702.332757,72.4269702 702.35961,72.2893453 702.37,72.15 C702.422417,71.3372697 701.934319,70.5867697 701.170154,70.3051137 C700.40599,70.0234578 699.547578,70.2776616 699.06,70.93 C698.979553,71.0418091 698.912432,71.1626267 698.86,71.29 C698.099135,72.9839578 696.192849,73.8426451 694.42,73.29 C694.28697,73.2472432 694.149345,73.2203895 694.01,73.21 C693.19727,73.1575833 692.44677,73.6456806 692.165114,74.4098455 C691.883458,75.1740104 692.137662,76.0324216 692.79,76.52 C692.901809,76.6004473 693.022627,76.6675682 693.15,76.72 C694.843958,77.4808655 695.702645,79.3871513 695.15,81.16 C695.107243,81.2930298 695.08039,81.4306547 695.07,81.57 C694.997822,82.3963006 695.487415,83.1687421 696.265481,83.456136 C697.043548,83.7435299 697.917711,83.4748182 698.4,82.8 C698.480447,82.6881909 698.547568,82.5673733 698.6,82.44 C699.360865,80.7460422 701.267151,79.8873549 703.04,80.44 C703.17303,80.4827568 703.310655,80.5096105 703.45,80.52 C704.26273,80.5724167 705.01323,80.0843194 705.294886,79.3201545 C705.576542,78.5559896 705.322338,77.6975784 704.67,77.21 C704.552431,77.1246712 704.424804,77.0541408 704.29,77 Z" id="Shape" fill="#4D8AF0" opacity="0.5"></path>
            <path d="M804.29,705 C802.596042,704.239135 801.737355,702.332849 802.29,700.56 C802.332757,700.42697 802.35961,700.289345 802.37,700.15 C802.422417,699.33727 801.934319,698.58677 801.170154,698.305114 C800.40599,698.023458 799.547578,698.277662 799.06,698.93 C798.979553,699.041809 798.912432,699.162627 798.86,699.29 C798.099135,700.983958 796.192849,701.842645 794.42,701.29 C794.28697,701.247243 794.149345,701.22039 794.01,701.21 C793.19727,701.157583 792.44677,701.645681 792.165114,702.409846 C791.883458,703.17401 792.137662,704.032422 792.79,704.52 C792.901809,704.600447 793.022627,704.667568 793.15,704.72 C794.843958,705.480865 795.702645,707.387151 795.15,709.16 C795.107243,709.29303 795.08039,709.430655 795.07,709.57 C794.997822,710.396301 795.487415,711.168742 796.265481,711.456136 C797.043548,711.74353 797.917711,711.474818 798.4,710.8 C798.480447,710.688191 798.547568,710.567373 798.6,710.44 C799.360865,708.746042 801.267151,707.887355 803.04,708.44 C803.17303,708.482757 803.310655,708.50961 803.45,708.52 C804.26273,708.572417 805.01323,708.084319 805.294886,707.320154 C805.576542,706.55599 805.322338,705.697578 804.67,705.21 C804.552431,705.124671 804.424804,705.054141 804.29,705 Z" id="Shape" fill="#4D8AF0" opacity="0.5"></path>
            <path d="M12.29,183 C10.5960422,182.239135 9.73735494,180.332849 10.29,178.56 C10.3327568,178.42697 10.3596105,178.289345 10.37,178.15 C10.4224167,177.33727 9.93431936,176.58677 9.17015446,176.305114 C8.40598956,176.023458 7.5475784,176.277662 7.06,176.93 C6.9795527,177.041809 6.91243183,177.162627 6.86,177.29 C6.09913454,178.983958 4.19284871,179.842645 2.42,179.29 C2.28697023,179.247243 2.14934535,179.22039 2.01,179.21 C1.19726969,179.157583 0.446769671,179.645681 0.165113726,180.409846 C-0.116542218,181.17401 0.137661615,182.032422 0.79,182.52 C0.901809142,182.600447 1.02262671,182.667568 1.15,182.72 C2.84395775,183.480865 3.70264506,185.387151 3.15,187.16 C3.10724315,187.29303 3.08038952,187.430655 3.07,187.57 C2.99782177,188.396301 3.48741498,189.168742 4.2654813,189.456136 C5.04354761,189.74353 5.9177109,189.474818 6.4,188.8 C6.4804473,188.688191 6.54756817,188.567373 6.6,188.44 C7.36086546,186.746042 9.26715129,185.887355 11.04,186.44 C11.1730298,186.482757 11.3106547,186.50961 11.45,186.52 C12.2627303,186.572417 13.0132303,186.084319 13.2948863,185.320154 C13.5765422,184.55599 13.3223384,183.697578 12.67,183.21 C12.552431,183.124671 12.4248045,183.054141 12.29,183 Z" id="Shape" fill="#4D8AF0" opacity="0.5"></path>
            <circle id="Oval" fill="#47E6B1" opacity="0.5" cx="79.4" cy="284" r="6"></circle>
            <circle id="Oval" fill="#47E6B1" opacity="0.5" cx="853.4" cy="332" r="6"></circle>
            <g id="Group" opacity="0.5" transform="translate(576.000000, 0.000000)" fill="#47E6B1">
                <rect id="Rectangle-path" x="7.4" y="0" width="3" height="17"></rect>
                <rect id="Rectangle-path" transform="translate(8.900000, 8.500000) rotate(90.000000) translate(-8.900000, -8.500000) " x="7.4" y="0" width="3" height="17"></rect>
            </g>
            <g id="Group" opacity="0.5" transform="translate(587.000000, 666.000000)" fill="#47E6B1">
                <rect id="Rectangle-path" x="7.4" y="0" width="3" height="17"></rect>
                <rect id="Rectangle-path" transform="translate(8.900000, 8.500000) rotate(90.000000) translate(-8.900000, -8.500000) " x="7.4" y="0" width="3" height="17"></rect>
            </g>
            <g id="Group" opacity="0.5" transform="translate(19.000000, 702.000000)" fill="#47E6B1">
                <rect id="Rectangle-path" x="7.4" y="0" width="3" height="17"></rect>
                <rect id="Rectangle-path" transform="translate(8.900000, 8.500000) rotate(90.000000) translate(-8.900000, -8.500000) " x="7.4" y="0" width="3" height="17"></rect>
            </g>
            <g id="Group" opacity="0.5" transform="translate(702.000000, 396.000000)" fill="#47E6B1">
                <rect id="Rectangle-path" x="7.4" y="0" width="3" height="17"></rect>
                <rect id="Rectangle-path" transform="translate(8.900000, 8.500000) rotate(90.000000) translate(-8.900000, -8.500000) " x="7.4" y="0" width="3" height="17"></rect>
            </g>
            <polygon id="Shape" fill="#47E6B1" opacity="0.5" points="795.61 123.02 802.05 128.92 811.18 115.5 814.4 118.19 802.05 134.29 792.92 124.09"></polygon>
        </g>
    </g>
</svg>