<?xml version="1.0" encoding="UTF-8"?>
<svg width="400px" height="185px" viewBox="0 0 983 582" version="1.1" xmlns="http://www.w3.org/2000/svg" xmlns:xlink="http://www.w3.org/1999/xlink">
    <!-- Generator: Sketch 50.2 (55047) - http://www.bohemiancoding.com/sketch -->
    <title>server</title>
    <desc>Created with Sketch.</desc>
    <defs></defs>
    <g id="Page-1" stroke="none" stroke-width="1" fill="none" fill-rule="evenodd">
        <g id="server" fill-rule="nonzero">
            <path d="M503.38,30.13 L499.57,251.13 C499.57,251.13 637.49,251.13 754.83,289.23 L757.12,65.91 C757.12,65.91 568.91,20.99 503.38,30.13 Z" id="Shape" fill="#000000" opacity="0.1"></path>
            <path d="M501.38,27.13 L497.57,248.13 C497.57,248.13 635.49,248.13 752.83,286.23 L755.12,62.91 C755.12,62.91 566.91,17.99 501.38,27.13 Z" id="Shape" fill="#F5F5FB"></path>
            <path d="M444.64,29.96 L448.45,250.96 C448.45,250.96 310.53,250.96 193.19,289.06 L190.9,65.8 C190.9,65.8 379.11,20.82 444.64,29.96 Z" id="Shape" fill="#000000" opacity="0.1"></path>
            <path d="M446.64,26.96 L450.45,247.96 C450.45,247.96 312.53,247.96 195.19,286.06 L192.9,62.8 C192.9,62.8 381.11,17.82 446.64,26.96 Z" id="Shape" fill="#F5F5FB"></path>
            <path d="M790.41,97.42 L790.41,316.11 C790.41,316.11 835.41,310.78 929.85,427.36 L938.24,208.67 C938.24,208.67 839.94,102.76 790.41,97.42 Z" id="Shape" fill="#000000" opacity="0.1"></path>
            <path d="M788.41,95.42 L788.41,314.11 C788.41,314.11 833.41,308.78 927.85,425.36 L936.24,206.67 C936.24,206.67 837.94,100.76 788.41,95.42 Z" id="Shape" fill="#F5F5FB"></path>
            <path d="M160.06,103.91 L160.06,322.61 C160.06,322.61 115.06,317.28 20.62,433.86 L12.24,215.17 C12.24,215.17 110.53,109.26 160.06,103.91 Z" id="Shape" fill="#000000" opacity="0.1"></path>
            <path d="M162.06,100.91 L162.06,319.61 C162.06,319.61 117.06,314.28 22.62,430.86 L14.24,212.17 C14.24,212.17 112.53,106.26 162.06,100.91 Z" id="Shape" fill="#F5F5FB"></path>
            <g id="Shape" transform="translate(379.000000, 286.000000)" fill="#7A72FF">
                <ellipse id="Oval" cx="96.7033089" cy="40.994115" rx="95.7033089" ry="40.994115"></ellipse>
                <path d="M194.608891,55.5555249 C190.374844,76.9311571 148.537676,93.7116322 97.5403695,93.7116322 C46.0963808,93.7116322 3.96981251,76.6352797 0.3586043,55 L0,55 L0,89.8350345 C16.8229456,106.706084 54.0674623,118.438529 97.3013,118.438529 C140.535138,118.438529 177.779654,106.706084 194.608891,89.8350345 L194.608891,55.5555249 Z"></path>
                <path d="M194.608891,98.5615632 C190.374844,119.931157 148.537676,136.717671 97.5403695,136.717671 C46.0963808,136.717671 3.96981251,119.641318 0.3586043,98 L0,98 L0,132.841073 C16.8229456,149.712123 54.0674623,161.438529 97.3013,161.438529 C140.535138,161.438529 177.779654,149.712123 194.608891,132.841073 L194.608891,98.5615632 Z"></path>
                <path d="M194.608902,144.555525 C190.374855,165.931157 148.537687,182.711632 97.5403803,182.711632 C46.0963916,182.711632 3.96982329,165.641318 0.358615076,144 L-1.42108547e-14,144 L1.07761212e-05,181.570391 C-0.0031735603,183.188869 0.699497087,184.734767 1.93773226,185.833441 C19.5533821,201.357946 55.6591729,207.438529 97.3013108,207.438529 C138.943449,207.438529 175.030366,201.357946 192.671181,185.833441 C193.909416,184.734767 194.612086,183.188869 194.608902,181.570391 L194.608902,144.555525 Z"></path>
            </g>
            <g id="Shape" transform="translate(110.000000, 374.000000)" fill="#7A72FF">
                <ellipse id="Oval" cx="96.7033089" cy="40.994115" rx="95.7033089" ry="40.994115"></ellipse>
                <path d="M194.608891,55.5555249 C190.374844,76.9311571 148.537676,93.7116322 97.5403695,93.7116322 C46.0963808,93.7116322 3.96981251,76.6352797 0.3586043,55 L0,55 L0,89.8350345 C16.8229456,106.706084 54.0674623,118.438529 97.3013,118.438529 C140.535138,118.438529 177.779654,106.706084 194.608891,89.8350345 L194.608891,55.5555249 Z"></path>
                <path d="M194.608891,98.5615632 C190.374844,119.931157 148.537676,136.717671 97.5403695,136.717671 C46.0963808,136.717671 3.96981251,119.641318 0.3586043,98 L0,98 L0,132.841073 C16.8229456,149.712123 54.0674623,161.438529 97.3013,161.438529 C140.535138,161.438529 177.779654,149.712123 194.608891,132.841073 L194.608891,98.5615632 Z"></path>
                <path d="M194.608902,144.555525 C190.374855,165.931157 148.537687,182.711632 97.5403803,182.711632 C46.0963916,182.711632 3.96982329,165.641318 0.358615076,144 L-1.42108547e-14,144 L1.07761212e-05,181.570391 C-0.0031735603,183.188869 0.699497087,184.734767 1.93773226,185.833441 C19.5533821,201.357946 55.6591729,207.438529 97.3013108,207.438529 C138.943449,207.438529 175.030366,201.357946 192.671181,185.833441 C193.909416,184.734767 194.612086,183.188869 194.608902,181.570391 L194.608902,144.555525 Z"></path>
            </g>
            <g id="Shape" transform="translate(646.000000, 374.000000)" fill="#7A72FF">
                <ellipse id="Oval" cx="96.7033089" cy="40.994115" rx="95.7033089" ry="40.994115"></ellipse>
                <path d="M194.608891,55.5555249 C190.374844,76.9311571 148.537676,93.7116322 97.5403695,93.7116322 C46.0963808,93.7116322 3.96981251,76.6352797 0.3586043,55 L0,55 L0,89.8350345 C16.8229456,106.706084 54.0674623,118.438529 97.3013,118.438529 C140.535138,118.438529 177.779654,106.706084 194.608891,89.8350345 L194.608891,55.5555249 Z"></path>
                <path d="M194.608891,98.5615632 C190.374844,119.931157 148.537676,136.717671 97.5403695,136.717671 C46.0963808,136.717671 3.96981251,119.641318 0.3586043,98 L0,98 L0,132.841073 C16.8229456,149.712123 54.0674623,161.438529 97.3013,161.438529 C140.535138,161.438529 177.779654,149.712123 194.608891,132.841073 L194.608891,98.5615632 Z"></path>
                <path d="M194.608902,144.555525 C190.374855,165.931157 148.537687,182.711632 97.5403803,182.711632 C46.0963916,182.711632 3.96982329,165.641318 0.358615076,144 L-1.42108547e-14,144 L1.07761212e-05,181.570391 C-0.0031735603,183.188869 0.699497087,184.734767 1.93773226,185.833441 C19.5533821,201.357946 55.6591729,207.438529 97.3013108,207.438529 C138.943449,207.438529 175.030366,201.357946 192.671181,185.833441 C193.909416,184.734767 194.612086,183.188869 194.608902,181.570391 L194.608902,144.555525 Z"></path>
            </g>
            <circle id="Oval" fill="#6C63FF" opacity="0.1" cx="31.29" cy="21.63" r="21.63"></circle>
            <circle id="Oval" fill="#6C63FF" opacity="0.1" cx="961.29" cy="83.63" r="21.63"></circle>
            <circle id="Oval" fill="#6C63FF" opacity="0.1" cx="16" cy="106.18" r="16"></circle>
            <circle id="Oval" fill="#6C63FF" opacity="0.1" cx="178" cy="16.18" r="16"></circle>
            <circle id="Oval" fill="#6C63FF" opacity="0.1" cx="834" cy="18.18" r="16"></circle>
            <path d="M316.45,125.97 C304.85202,125.97 295.45,135.37202 295.45,146.97 C295.45,158.56798 304.85202,167.97 316.45,167.97 C328.04798,167.97 337.45,158.56798 337.45,146.97 C337.45,135.37202 328.04798,125.97 316.45,125.97 Z M316.45,130.04 C325.838841,130.04 333.45,137.651159 333.45,147.04 C333.45,156.428841 325.838841,164.04 316.45,164.04 C307.061159,164.04 299.45,156.428841 299.45,147.04 C299.45,137.651159 307.061159,130.04 316.45,130.04 Z M328.34,141.09 L326.43,139.16 C326.241517,138.964448 325.9816,138.853974 325.71,138.853974 C325.4384,138.853974 325.178483,138.964448 324.99,139.16 L312.99,151.05 L307.93,145.91 C307.741517,145.714448 307.4816,145.603974 307.21,145.603974 C306.9384,145.603974 306.678483,145.714448 306.49,145.91 L304.57,147.82 C304.374448,148.008483 304.263974,148.2684 304.263974,148.54 C304.263974,148.8116 304.374448,149.071517 304.57,149.26 L312.27,157.02 C312.458483,157.215552 312.7184,157.326026 312.99,157.326026 C313.2616,157.326026 313.521517,157.215552 313.71,157.02 L328.34,142.5 C328.535552,142.311517 328.646026,142.0516 328.646026,141.78 C328.646026,141.5084 328.535552,141.248483 328.34,141.06 L328.34,141.09 Z" id="Shape" fill="#3ACC6C" opacity="0.7"></path>
            <path d="M83.97,232.29 C72.6801385,234.91256 65.6497264,246.18599 68.2619338,257.478251 C70.8741413,268.770512 82.1411206,275.811258 93.4357722,273.209405 C104.730424,270.607552 111.781496,259.347032 109.19,248.05 C107.942475,242.611699 104.582017,237.893426 99.850353,234.936605 C95.1186891,231.979784 89.4048486,231.027521 83.97,232.29 Z M84.89,236.29 C91.5930969,234.725762 98.5779406,237.357935 102.581639,242.956931 C106.585338,248.555926 106.817668,256.01665 103.170098,261.853909 C99.5225291,267.691167 92.714994,270.752841 85.9275572,269.608703 C79.1401204,268.464565 73.7124414,263.340438 72.18,256.63 C70.0967172,247.507472 75.7774517,238.416509 84.89,236.29 Z M98.96,244.39 L96.66,242.91 C96.4330816,242.762531 96.1560821,242.713329 95.8922587,242.773632 C95.6284353,242.833934 95.4003177,242.998591 95.26,243.23 L86.26,257.51 L80.17,253.66 C79.9430816,253.512531 79.6660821,253.463329 79.4022587,253.523632 C79.1384353,253.583934 78.9103177,253.748591 78.77,253.98 L77.32,256.28 C77.1725307,256.506918 77.1233293,256.783918 77.1836318,257.047741 C77.2439343,257.311565 77.408591,257.539682 77.64,257.68 L86.88,263.51 C87.1076812,263.660756 87.3871093,263.711848 87.6534055,263.651412 C87.9197018,263.590976 88.1497006,263.42427 88.29,263.19 L99.29,245.76 C99.4383521,245.534312 99.4891073,245.258213 99.4307181,244.99452 C99.3723288,244.730826 99.2097606,244.501963 98.98,244.36 L98.96,244.39 Z" id="Shape" fill="#3ACC6C" opacity="0.7"></path>
            <path d="M622.52,129.01 C610.92202,129.01 601.52,138.41202 601.52,150.01 C601.52,161.60798 610.92202,171.01 622.52,171.01 C634.11798,171.01 643.52,161.60798 643.52,150.01 C643.52,138.41202 634.11798,129.01 622.52,129.01 Z M622.52,133.08 C631.908841,133.08 639.52,140.691159 639.52,150.08 C639.52,159.468841 631.908841,167.08 622.52,167.08 C613.131159,167.08 605.52,159.468841 605.52,150.08 C605.52,140.691159 613.131159,133.08 622.52,133.08 Z M634.41,144.13 L632.5,142.2 C632.311517,142.004448 632.0516,141.893974 631.78,141.893974 C631.5084,141.893974 631.248483,142.004448 631.06,142.2 L619.06,154.09 L613.99,148.98 C613.801517,148.784448 613.5416,148.673974 613.27,148.673974 C612.9984,148.673974 612.738483,148.784448 612.55,148.98 L610.64,150.91 C610.444448,151.098483 610.333974,151.3584 610.333974,151.63 C610.333974,151.9016 610.444448,152.161517 610.64,152.35 L618.34,160.11 C618.528483,160.305552 618.7884,160.416026 619.06,160.416026 C619.3316,160.416026 619.591517,160.305552 619.78,160.11 L634.41,145.59 C634.605552,145.401517 634.716026,145.1416 634.716026,144.87 C634.716026,144.5984 634.605552,144.338483 634.41,144.15 L634.41,144.13 Z" id="Shape" fill="#3ACC6C" opacity="0.7"></path>
            <path d="M863.45,232.72 C851.890448,231.822907 841.791105,240.463681 840.888839,252.02283 C839.986572,263.58198 848.622826,273.685189 860.18157,274.592628 C871.740314,275.500068 881.847387,266.868337 882.76,255.31 C883.198775,249.752864 881.410058,244.24929 877.787985,240.011971 C874.165911,235.774652 869.00772,233.151314 863.45,232.72 Z M863.13,236.77 C869.993658,237.285766 875.868998,241.88939 878.011544,248.430438 C880.15409,254.971487 878.140984,262.159003 872.912584,266.635569 C867.684184,271.112136 860.272379,271.994248 854.139354,268.869855 C848.00633,265.745461 844.362515,259.231201 844.91,252.37 C845.254677,247.884105 847.368685,243.719287 850.786258,240.793155 C854.20383,237.867022 858.644543,236.419676 863.13,236.77 Z M874.13,248.71 L872.37,246.64 C872.198564,246.430946 871.949787,246.300216 871.680376,246.277608 C871.410964,246.255 871.143879,246.342441 870.94,246.52 L858.07,257.45 L853.41,251.96 C853.23838,251.747881 852.987538,251.615101 852.71563,251.592442 C852.443721,251.569782 852.174362,251.659213 851.97,251.84 L849.9,253.6 C849.692395,253.772876 849.563571,254.022395 849.54285,254.291758 C849.52213,254.561121 849.611278,254.827407 849.79,255.03 L856.86,263.36 C857.031436,263.569054 857.280213,263.699784 857.549624,263.722392 C857.819036,263.745 858.086121,263.657559 858.29,263.48 L874.01,250.14 C874.219054,249.968564 874.349784,249.719787 874.372392,249.450376 C874.395,249.180964 874.307559,248.913879 874.13,248.71 Z" id="Shape" fill="#3ACC6C" opacity="0.7"></path>
        </g>
    </g>
</svg>